#!OML:ASF H:\Terrain\Patient Classification 1\Walking\liu\liu.ASF
:FULLY-SPECIFIED
:DEGREES
80
root 9.00761 16.6262 -21.1042 5.57484 -4.92765 1.84696
lowerback -5.67274 1.183 -4.44522
upperback -1.12192 1.815 1.11113
thorax 1.84757 0.882762 3.77206
lowerneck -22.5094 -4.15733 -12.4044
upperneck 20.9123 -5.05586 13.5387
head 11.1933 -1.65609 6.29269
rclavicle 2.19781e-014 2.14687e-014
rhumerus -35.0445 13.9197 -88.6615
rradius 31.3346
rwrist -11.7247
rhand -29.1781 -22.6823
rfingers 7.12502
rthumb -2.52367 -52.6471
lclavicle 2.19781e-014 2.14687e-014
lhumerus -35.6422 2.71781 85.1094
lradius 16.1902
lwrist -11.5416
lhand -14.2411 -29.7032
lfingers 7.12502
lthumb 11.8966 -0.0611571
rfemur -3.85567 -5.181 17.6698
rtibia 51.0302
rfoot 16.7867 -1.50046
rtoes -21.3082
lfemur -23.8575 9.37691 -27.7532
ltibia 19.5149
lfoot -5.83622 5.50254
ltoes -6.14579
81
root 9.025 16.6391 -20.967 5.55451 -5.05642 1.93822
lowerback -5.57678 1.08239 -4.54227
upperback -1.08819 1.6829 1.11088
thorax 1.83882 0.815898 3.81578
lowerneck -22.9822 -4.0525 -12.0869
upperneck 21.1421 -4.89598 13.2004
head 11.324 -1.58299 6.14643
rclavicle -1.77167e-014 -5.96354e-015
rhumerus -35.6148 14.3715 -89.0044
rradius 31.6427
rwrist -12.0829
rhand -28.6932 -22.8671
rfingers 7.12502
rthumb -2.05537 -52.837
lclavicle -1.77167e-014 -5.96354e-015
lhumerus -34.7074 2.06894 85.606
lradius 16.3109
lwrist -11.3216
lhand -11.4286 -27.4131
lfingers 7.12502
lthumb 14.6076 2.05249
rfemur -5.42177 -5.36093 17.5854
rtibia 53.6478
rfoot 15.8293 -3.57958
rtoes -21.6469
lfemur -23.1426 9.33304 -27.8294
ltibia 19.2778
lfoot -6.27073 5.56432
ltoes -6.2589
82
root 9.04517 16.6606 -20.8325 5.49678 -5.04523 2.10949
lowerback -5.45361 0.946035 -4.57058
upperback -1.07541 1.49874 1.04559
thorax 1.80245 0.724545 3.74908
lowerneck -22.8392 -3.92506 -12.0557
upperneck 20.9128 -4.70384 13.138
head 11.1788 -1.50461 6.1357
rclavicle -6.05051e-015 -1.15295e-014
rhumerus -36.098 14.6827 -89.3822
rradius 31.7846
rwrist -12.2319
rhand -28.0583 -22.9193
rfingers 7.12502
rthumb -1.44219 -52.8942
lclavicle -6.05051e-015 -1.15295e-014
lhumerus -34.1594 0.651453 86.3176
lradius 16.9005
lwrist -10.1101
lhand -11.6861 -27.3038
lfingers 7.12502
lthumb 14.3595 2.17957
rfemur -7.00256 -5.63887 17.3701
rtibia 56.2083
rfoot 14.5811 -5.29623
rtoes -23.1897
lfemur -22.3076 9.44556 -28.0548
ltibia 18.8917
lfoot -6.68023 5.31979
ltoes -5.71855
83
root 9.06739 16.6704 -20.7028 5.40831 -4.92861 2.66045
lowerback -5.25902 0.804051 -5.00578
upperback -1.10438 1.32662 0.902324
thorax 1.67381 0.640811 3.83008
lowerneck -22.2274 -3.85443 -12.2332
upperneck 20.3629 -4.58991 13.2501
head 10.8505 -1.47168 6.19643
rclavicle 1.42876e-016 3.97569e-015
rhumerus -36.6903 14.9535 -89.7204
rradius 31.9161
rwrist -12.5542
rhand -27.9479 -23.2535
rfingers 7.12502
rthumb -1.33557 -53.229
lclavicle 1.42876e-016 3.97569e-015
lhumerus -33.7449 -0.714097 87.0806
lradius 17.6353
lwrist -8.47655
lhand -15.1293 -28.6187
lfingers 7.12502
lthumb 11.0401 1.071
rfemur -8.5838 -6.11165 16.7864
rtibia 58.7094
rfoot 12.941 -7.37322
rtoes -23.2178
lfemur -21.404 9.66268 -28.7593
ltibia 18.2564
lfoot -6.79218 4.82882
ltoes -4.7571
84
root 9.08423 16.6749 -20.5791 5.32874 -4.84182 3.3779
lowerback -5.05784 0.593908 -5.79084
upperback -1.03592 1.08135 0.781994
thorax 1.64436 0.514482 4.13004
lowerneck -22.6805 -3.74853 -11.9725
upperneck 20.5615 -4.41933 12.9527
head 10.9677 -1.39439 6.07693
rclavicle 4.29251e-015 1.59028e-015
rhumerus -37.16 15.6115 -90.0703
rradius 32.1936
rwrist -13.1144
rhand -28.048 -23.6206
rfingers 7.12502
rthumb -1.43224 -53.5956
lclavicle 4.29251e-015 1.59028e-015
lhumerus -32.8291 -1.67808 87.7218
lradius 18.0251
lwrist -7.32267
lhand -16.2782 -28.5607
lfingers 7.12502
lthumb 9.93173 1.18506
rfemur -10.2008 -6.56686 16.0955
rtibia 61.0694
rfoot 11.5613 -9.18392
rtoes -19.4415
lfemur -20.6382 10.443 -29.7585
ltibia 17.5951
lfoot -6.68216 3.91112
ltoes -4.80602
85
root 9.10022 16.6749 -20.4548 5.15873 -4.82893 4.08473
lowerback -4.89646 0.408174 -6.5325
upperback -0.863532 0.869743 0.645823
thorax 1.74721 0.397772 4.39348
lowerneck -23.4601 -3.62728 -11.666
upperneck 20.9116 -4.23283 12.6957
head 11.2021 -1.29296 5.97913
rclavicle 1.15544e-015 1.59028e-015
rhumerus -37.4298 16.1225 -90.3361
rradius 32.4539
rwrist -13.2469
rhand -27.9435 -24.1311
rfingers 7.12502
rthumb -1.33138 -54.1067
lclavicle 1.15544e-015 1.59028e-015
lhumerus -31.8073 -2.83647 88.3259
lradius 18.4238
lwrist -6.39996
lhand -13.1345 -27.317
lfingers 7.12502
lthumb 12.9636 2.2603
rfemur -11.6673 -6.78427 15.411
rtibia 63.1708
rfoot 10.1507 -10.4711
rtoes -15.5966
lfemur -19.8091 10.9487 -30.6423
ltibia 17.1077
lfoot -6.76454 3.3955
ltoes -4.20657
86
root 9.11972 16.6721 -20.3286 5.06788 -4.69226 4.45591
lowerback -4.87655 0.295658 -6.79747
upperback -0.720911 0.738396 0.580836
thorax 1.89774 0.321728 4.46844
lowerneck -23.5091 -3.64632 -11.9109
upperneck 20.7234 -4.19917 12.8871
head 11.1475 -1.27275 6.09375
rclavicle -4.16205e-015 3.18055e-015
rhumerus -37.7336 16.2414 -90.4186
rradius 32.6825
rwrist -13.1698
rhand -28.007 -24.8467
rfingers 7.12502
rthumb -1.39268 -54.8219
lclavicle -4.16205e-015 3.18055e-015
lhumerus -30.8691 -3.84358 88.7952
lradius 18.8389
lwrist -6.10516
lhand -4.87972 -20.9429
lfingers 7.12502
lthumb 20.909 7.95024
rfemur -13.1052 -6.9696 15.1173
rtibia 64.9636
rfoot 8.53743 -11.485
rtoes -14.1351
lfemur -19.0618 11.0659 -31.1138
ltibia 16.7564
lfoot -6.85315 3.14528
ltoes -3.18396
87
root 9.13802 16.6772 -20.2024 5.03975 -4.27199 4.42613
lowerback -4.82856 0.152334 -6.66512
upperback -0.613062 0.538799 0.666909
thorax 2.0086 0.216104 4.47141
lowerneck -23.1974 -3.76219 -12.3693
upperneck 20.2957 -4.23278 13.0301
head 10.9504 -1.31603 6.19962
rclavicle 6.78353e-015 1.31198e-014
rhumerus -38.0633 16.3804 -90.4543
rradius 32.8302
rwrist -13.4412
rhand -28.6821 -24.9722
rfingers 7.12502
rthumb -2.04468 -54.9421
lclavicle 6.78353e-015 1.31198e-014
lhumerus -29.9124 -4.9087 89.2798
lradius 19.2104
lwrist -5.95501
lhand -1.74907 -18.9891
lfingers 7.12502
lthumb 23.914 9.5418
rfemur -14.4457 -7.37118 15.3244
rtibia 66.3964
rfoot 6.83434 -12.2174
rtoes -13.4583
lfemur -18.4092 11.2124 -31.1703
ltibia 16.5318
lfoot -6.82085 2.5998
ltoes -3.10593
88
root 9.15328 16.6847 -20.076 4.89747 -3.59794 4.50072
lowerback -4.53464 -0.156781 -6.75913
upperback -0.535031 0.1105 0.765827
thorax 1.9785 0.000284258 4.59942
lowerneck -23.0586 -3.73854 -12.5513
upperneck 20.0685 -4.1246 13.008
head 10.8278 -1.28703 6.22771
rclavicle 5.86415e-015 -1.98785e-014
rhumerus -38.3043 16.6973 -90.6043
rradius 32.6514
rwrist -13.7104
rhand -29.9586 -24.9102
rfingers 7.12502
rthumb -3.27751 -54.8647
lclavicle 5.86415e-015 -1.98785e-014
lhumerus -29.1782 -6.14807 89.8147
lradius 19.7801
lwrist -5.27905
lhand -2.00376 -18.7476
lfingers 7.12502
lthumb 23.6698 9.81517
rfemur -15.5168 -7.91756 15.4524
rtibia 67.5373
rfoot 5.11223 -12.9522
rtoes -11.9261
lfemur -17.6368 11.0902 -31.255
ltibia 16.377
lfoot -6.90379 2.10281
ltoes -2.63263
89
root 9.16429 16.6941 -19.953 4.98038 -2.95236 4.46898
lowerback -4.3706 -0.475689 -6.7703
upperback -0.59196 -0.329474 0.841924
thorax 1.8849 -0.214892 4.65803
lowerneck -22.9213 -3.57579 -12.3782
upperneck 19.9597 -3.95581 12.9793
head 10.7321 -1.2029 6.20675
rclavicle 1.70706e-014 8.34896e-015
rhumerus -38.6808 16.8094 -90.8367
rradius 32.3859
rwrist -13.8297
rhand -30.9383 -24.9886
rfingers 7.12502
rthumb -4.22355 -54.9264
lclavicle 1.70706e-014 8.34896e-015
lhumerus -28.6253 -6.95525 90.0815
lradius 20.3239
lwrist -5.05943
lhand -2.68736 -18.6724
lfingers 7.12502
lthumb 23.014 9.97358
rfemur -16.8216 -8.3322 15.7751
rtibia 68.4478
rfoot 3.75913 -13.699
rtoes -10.4365
lfemur -17.1365 10.7738 -31.2326
ltibia 16.2134
lfoot -7.06762 1.89268
ltoes -2.29688
90
root 9.17327 16.7023 -19.831 5.16977 -2.51431 4.11876
lowerback -4.44339 -0.594944 -6.38185
upperback -0.622879 -0.504843 0.945361
thorax 1.91425 -0.300224 4.53522
lowerneck -22.4305 -3.55011 -12.3921
upperneck 19.5018 -3.96248 13.095
head 10.4792 -1.20608 6.22564
rclavicle 1.85118e-014 1.82882e-014
rhumerus -39.0935 16.281 -90.7773
rradius 32.3699
rwrist -13.752
rhand -31.4441 -24.7055
rfingers 7.12502
rthumb -4.71194 -54.6331
lclavicle 1.85118e-014 1.82882e-014
lhumerus -27.8092 -7.81244 90.3046
lradius 20.6163
lwrist -5.11434
lhand -3.14952 -19.0687
lfingers 7.12502
lthumb 22.5705 9.63194
rfemur -18.2527 -8.46331 16.4619
rtibia 69.0978
rfoot 2.55498 -13.9739
rtoes -12.1934
lfemur -16.8552 10.6741 -30.9092
ltibia 16.11
lfoot -7.18286 1.71016
ltoes -3.03383
91
root 9.18775 16.7002 -19.7025 5.12378 -2.25664 3.7976
lowerback -4.49907 -0.696902 -5.98336
upperback -0.46803 -0.654177 1.02782
thorax 2.12129 -0.382569 4.38543
lowerneck -22.2085 -3.52273 -12.3106
upperneck 19.1508 -3.93467 13.0442
head 10.3048 -1.19818 6.17799
rclavicle 1.97791e-014 1.07344e-014
rhumerus -39.1702 15.6699 -90.587
rradius 32.3524
rwrist -13.2398
rhand -31.6788 -24.7796
rfingers 7.12502
rthumb -4.93864 -54.702
lclavicle 1.97791e-014 1.07344e-014
lhumerus -26.7213 -8.85424 90.5409
lradius 20.8291
lwrist -4.40284
lhand -5.97677 -21.326
lfingers 7.12502
lthumb 19.8547 7.67979
rfemur -19.4212 -8.34025 17.0156
rtibia 69.564
rfoot 1.80163 -13.8907
rtoes -14.9086
lfemur -16.3672 10.3969 -30.5889
ltibia 16.1645
lfoot -7.34702 1.9778
ltoes -4.35972
92
root 9.20737 16.6958 -19.5673 4.89454 -2.01484 3.65572
lowerback -4.33753 -0.873721 -5.72222
upperback -0.304771 -0.908903 1.02996
thorax 2.22634 -0.514498 4.22378
lowerneck -22.3457 -3.42179 -11.9476
upperneck 19.1589 -3.83771 12.785
head 10.3047 -1.15159 6.03314
rclavicle 5.71506e-016 -1.03368e-014
rhumerus -39.275 15.3719 -90.6303
rradius 32.2336
rwrist -12.8086
rhand -31.536 -25.0372
rfingers 7.12502
rthumb -4.80067 -54.9628
lclavicle 5.71506e-016 -1.03368e-014
lhumerus -25.7053 -9.81722 90.5206
lradius 21.1744
lwrist -3.29883
lhand -12.6298 -26.7593
lfingers 7.12502
lthumb 13.4501 2.78648
rfemur -20.3329 -8.15903 17.3014
rtibia 69.8701
rfoot 1.17687 -13.9189
rtoes -14.6409
lfemur -15.6004 9.51983 -30.3588
ltibia 16.3191
lfoot -7.75945 2.79024
ltoes -4.95864
93
root 9.22636 16.6973 -19.4349 4.72373 -1.64876 3.57899
lowerback -4.15396 -0.95085 -5.4531
upperback -0.211312 -1.0325 0.990341
thorax 2.22866 -0.57552 4.02384
lowerneck -22.3846 -3.49191 -11.8788
upperneck 19.1897 -3.94777 12.7418
head 10.3366 -1.20094 5.98952
rclavicle 7.72775e-015 -1.15295e-014
rhumerus -39.5392 14.7231 -90.4464
rradius 32.1231
rwrist -12.4014
rhand -30.9006 -25.565
rfingers 7.12502
rthumb -4.18713 -55.5036
lclavicle 7.72775e-015 -1.15295e-014
lhumerus -24.7291 -11.0561 90.4651
lradius 21.6747
lwrist -2.63155
lhand -12.6078 -26.2836
lfingers 7.12502
lthumb 13.4712 3.26074
rfemur -21.2507 -8.07959 17.5185
rtibia 69.9817
rfoot -0.800866 -13.7601
rtoes -14.1324
lfemur -14.9039 8.54999 -30.1399
ltibia 16.5238
lfoot -8.43736 3.39145
ltoes -3.7121
94
root 9.24099 16.6973 -19.3099 4.78712 -1.40434 3.63548
lowerback -4.24342 -0.930953 -5.36953
upperback -0.159531 -1.00363 0.988459
thorax 2.32775 -0.564153 3.97514
lowerneck -22.3388 -3.61851 -12.0552
upperneck 19.2125 -4.06796 12.7244
head 10.3571 -1.27313 5.99528
rclavicle 6.13748e-015 -1.03368e-014
rhumerus -39.8449 14.0213 -90.0629
rradius 32.2005
rwrist -12.2711
rhand -30.63 -27.9607
rfingers 7.12502
rthumb -3.92586 -57.9042
lclavicle 6.13748e-015 -1.03368e-014
lhumerus -23.9395 -12.5794 90.8363
lradius 22.0703
lwrist -3.01122
lhand -13.5605 -25.8341
lfingers 7.12502
lthumb 12.5528 3.7688
rfemur -22.4485 -7.86728 17.6242
rtibia 69.9547
rfoot -4.31896 -13.3313
rtoes -12.253
lfemur -14.5281 7.77676 -30.1193
ltibia 16.7123
lfoot -9.09327 3.75681
ltoes -2.62773
